<?xml version="1.0" encoding="UTF-8" standalone="no"?>
<!-- Created with Inkscape (http://www.inkscape.org/) -->

<svg
   width="512"
   height="512"
   viewBox="0 0 135.46666 135.46667"
   version="1.1"
   id="svg1"
   inkscape:version="1.4 (e7c3feb100, 2024-10-09)"
   sodipodi:docname="icon_fg_monochrome.svg"
   xml:space="preserve"
   xmlns:inkscape="http://www.inkscape.org/namespaces/inkscape"
   xmlns:sodipodi="http://sodipodi.sourceforge.net/DTD/sodipodi-0.dtd"
   xmlns="http://www.w3.org/2000/svg"
   xmlns:svg="http://www.w3.org/2000/svg"><sodipodi:namedview
     id="namedview1"
     pagecolor="#212121"
     bordercolor="#000000"
     borderopacity="0.25"
     inkscape:showpageshadow="2"
     inkscape:pageopacity="0.0"
     inkscape:pagecheckerboard="0"
     inkscape:deskcolor="#000000"
     inkscape:document-units="mm"
     inkscape:zoom="3.1210938"
     inkscape:cx="278.90864"
     inkscape:cy="237.25657"
     inkscape:window-width="1920"
     inkscape:window-height="1008"
     inkscape:window-x="0"
     inkscape:window-y="0"
     inkscape:window-maximized="1"
     inkscape:current-layer="layer1" /><defs
     id="defs1"><rect
       x="3.9736736"
       y="3.9736736"
       width="167.88771"
       height="294.05185"
       id="rect1" /></defs><g
     inkscape:label="Layer 1"
     inkscape:groupmode="layer"
     id="layer1"><path
       d="m 50.634503,57.956934 -1.982886,-5.095555 h -6.525078 l -1.959828,5.095555 H 38.06854 l 6.432851,-16.531733 h 1.867602 l 6.409793,16.531733 z M 46.184538,46.036563 q -0.06917,-0.184455 -0.230568,-0.668647 -0.161398,-0.484193 -0.322795,-0.991443 -0.138341,-0.530307 -0.230569,-0.806989 -0.161397,0.714761 -0.368908,1.406466 -0.207512,0.668648 -0.345852,1.060613 l -1.867602,4.980271 h 5.21084 z"
       id="text1"
       style="font-size:192px;white-space:pre;fill:#ffffff;stroke:#ffffff;stroke-width:0.6;stroke-opacity:1;stroke-dasharray:none"
       aria-label="A" /><rect
       style="fill:#ffffff;fill-opacity:1;stroke:#ffffff;stroke-width:0.600438;stroke-dasharray:none;stroke-opacity:1"
       id="rect2"
       width="42.030643"
       height="2.4017513"
       x="55.027115"
       y="43.604736"
       rx="1.2008756"
       ry="1.2008756" /><rect
       style="fill:#ffffff;fill-opacity:1;stroke:#ffffff;stroke-width:0.600438;stroke-dasharray:none;stroke-opacity:1"
       id="rect2-5"
       width="42.030643"
       height="2.4017513"
       x="55.027115"
       y="55.613495"
       rx="1.2008756"
       ry="1.2008756" /><rect
       style="fill:#ffffff;fill-opacity:1;stroke:#ffffff;stroke-width:0.600438;stroke-dasharray:none;stroke-opacity:1"
       id="rect2-5-5"
       width="59.083084"
       height="2.4017513"
       x="38.214855"
       y="67.622253"
       rx="1.6880879"
       ry="1.2008756" /><rect
       style="fill:#ffffff;fill-opacity:1;stroke:#ffffff;stroke-width:0.600438;stroke-dasharray:none;stroke-opacity:1"
       id="rect2-5-5-5"
       width="59.083084"
       height="2.4017513"
       x="38.214855"
       y="79.631004"
       rx="1.6880879"
       ry="1.2008756" /><rect
       style="fill:#ffffff;fill-opacity:1;stroke:#ffffff;stroke-width:0.600438;stroke-dasharray:none;stroke-opacity:1"
       id="rect2-5-5-2"
       width="59.083084"
       height="2.4017513"
       x="38.214855"
       y="91.639771"
       rx="1.6880879"
       ry="1.2008756" /><g
       style="fill:#ffffff;fill-opacity:1;stroke:#ffffff;stroke-width:10.9707;stroke-dasharray:none;stroke-opacity:1"
       id="g1"
       transform="matrix(0.05473119,0,0,0.05473119,51.562411,96.367414)"><path
         d="m 200,-200 h 57 l 391,-391 -57,-57 -391,391 z m -80,80 v -170 l 528,-527 q 12,-11 26.5,-17 14.5,-6 30.5,-6 16,0 31,6 15,6 26,18 l 55,56 q 12,11 17.5,26 5.5,15 5.5,30 0,16 -5.5,30.5 Q 829,-659 817,-647 l -527,527 z m 640,-584 -56,-56 z m -141,85 -28,-29 57,57 z"
         id="path1"
         style="fill:#ffffff;fill-opacity:1;stroke:#ffffff;stroke-width:10.9707;stroke-dasharray:none;stroke-opacity:1" /></g><path
       style="fill:#ffffff;fill-opacity:1;stroke:none;stroke-width:0.600439;stroke-dasharray:none;stroke-opacity:1"
       d="m 62.485734,85.560054 -0.04081,-3.342372 21.459963,-21.36474 3.213642,3.172828 -21.616458,21.544822 z"
       id="path2"
       sodipodi:nodetypes="cccccc" /></g></svg>
